{"title":"Hammer Of The Gods 2013 WEBrip Xvid Ac3-MiLLENiUM [PublicHash]","uid":8532542,"size":1553558240,"categoryP":"video","categoryS":"movies","magnet":"?xt=urn:btih:6e553274da4064fa07cb7e313522fa6e409bce60&amp;dn=Hammer+Of+The+Gods+2013+WEBrip+Xvid+Ac3-MiLLENiUM+%5BPublicHash%5D&amp;tr=udp%3A%2F%2Ftracker.openbittorrent.com%3A80&amp;tr=udp%3A%2F%2Fopen.demonii.com%3A1337&amp;tr=udp%3A%2F%2Ftracker.coppersurfer.tk%3A6969&amp;tr=udp%3A%2F%2Fexodus.desync.com%3A6969","seeders":1,"leechers":0,"uploader":"R0thschild","files":8,"time":1370191534,"description":"              ***********************************************\n\n                PublicHash - Largest Bittorrent Community\n      \n                         &lt;a href=&quot; http://publichash.com/&quot; rel=&quot;nofollow&quot; target=&quot;_NEW&quot;&gt; http://publichash.com/&lt;/a&gt;\n    \n              ***********************************************\n98mins -  Action  -  30 May 2013 (USA)\nIMDB rating: 5.9\n\nAction epic sees a passionate young man transform into a brutal warrior as he travels the unforgiving landscape in search of his long lost brother Hakan The Ferrocious, whose people are relying on him to restore order to their kingdom.\n\nDirector: Farren Blackburn\nWriter: Matthew Read\n\nCharlie Bewley ... Steinar\nClive Standen ... Hagen\nJames Cosmo ... King Bagsecg\nElliot Cowan ... Hakan\nGlynis Barber ... Astrid\nIvan Kaye ... Ivar\nMichael Jibson ... Grim\nGuy Flanagan ... Jokul\nTheo Barklem-Biggs ... Vali\nAlexandra Dowling ... Agnes\nFinlay Robertson ... Harald\nMichael Lindall ... Saxon Leader\nFrancis Magee ... Ulric\nChristian Carroll ... Drummer\nRimmel Daniel ... Viking Cave Dweller \n &lt;a href=&quot;\nhttp://imgsure.com/?p=559807&quot; rel=&quot;nofollow&quot; target=&quot;_NEW&quot;&gt;\nhttp://imgsure.com/?p=559807&lt;/a&gt; &lt;a href=&quot;\nhttp://imgsure.com/?p=999364&quot; rel=&quot;nofollow&quot; target=&quot;_NEW&quot;&gt;\nhttp://imgsure.com/?p=999364&lt;/a&gt;\n\nGeneral\nComplete name                            : Hammer Of The Gods 2013 WEBrip Xvid Ac3-MiLLENiUM.avi\nSource                                   : AQOS [Thanks]\nFormat                                   : AVI\nFormat/Info                              : Audio Video Interleave\nFile size                                : 1.43 GiB\nDuration                                 : 1h 38mn\nOverall bit rate                         : 2 074 Kbps\nWriting application                      : VirtualDubMod 1.5.10.2 (build 2540/release)\nWriting library                          : VirtualDubMod build 2540/release\n\nVideo\nID                                       : 0\nFormat                                   : MPEG-4 Visual\nFormat profile                           : Advanced Simple@L5\nFormat settings, BVOP                    : 2\nFormat settings, QPel                    : No\nFormat settings, GMC                     : No warppoints\nFormat settings, Matrix                  : Default (H.263)\nMuxing mode                              : Packed bitstream\nCodec ID                                 : XVID\nCodec ID/Hint                            : XviD\nDuration                                 : 1h 38mn\nBit rate                                 : 1 680 Kbps\nWidth                                    : 720 pixels\nHeight                                   : 304 pixels\nDisplay aspect ratio                     : 2.35:1\nFrame rate                               : 23.976 fps\nColor space                              : YUV\nChroma subsampling                       : 4:2:0\nBit depth                                : 8 bits\nScan type                                : Progressive\nCompression mode                         : Lossy\nBits/(Pixel*Frame)                       : 0.320\nStream size                              : 1.16 GiB (81%)\nWriting library                          : XviD 64\n\nAudio\nID                                       : 1\nFormat                                   : AC-3\nFormat/Info                              : Audio Coding 3\nMode extension                           : CM (complete main)\nCodec ID                                 : 2000\nDuration                                 : 1h 38mn\nBit rate mode                            : Constant\nBit rate                                 : 384 Kbps\nChannel(s)                               : 6 channels\nChannel positions                        : Front: L C R, Side: L R, LFE\nSampling rate                            : 48.0 KHz\nBit depth                                : 16 bits\nCompression mode                         : Lossy\nDelay relative to video                  : 19ms\nStream size                              : 271 MiB (19%)\nAlignment                                : Split accross interleaves\nInterleave, duration                     : 42 ms (1.00 video frame)\nInterleave, preload duration             : 500 ms\n\nIMDB link: http://www.imdb.com/title/tt2193418/","torrent":{"xt":"urn:btih:6e553274da4064fa07cb7e313522fa6e409bce60","amp;dn":"Hammer+Of+The+Gods+2013+WEBrip+Xvid+Ac3-MiLLENiUM+%5BPublicHash%5D","amp;tr":["udp%3A%2F%2Ftracker.openbittorrent.com%3A80","udp%3A%2F%2Fopen.demonii.com%3A1337","udp%3A%2F%2Ftracker.coppersurfer.tk%3A6969","udp%3A%2F%2Fexodus.desync.com%3A6969"],"infoHash":"6e553274da4064fa07cb7e313522fa6e409bce60","infoHashBuffer":{"type":"Buffer","data":[110,85,50,116,218,64,100,250,7,203,126,49,53,34,250,110,64,155,206,96]},"announce":[],"urlList":[]}}